Coordinates
version=1
nRows=9
nColumns=36
inDegrees=yes

Units are S.I. units (second, meters, Newtons, ...)
If the header above contains a line with 'inDegrees', this indicates whether rotational values are in degrees (yes) or radians (no).

endheader
time	pelvis_tilt	pelvis_list	pelvis_rotation	pelvis_tx	pelvis_ty	pelvis_tz	hip_flexion_r	hip_adduction_r	hip_rotation_r	knee_angle_r	knee_angle_r_beta	ankle_angle_r	subtalar_angle_r	mtp_angle_r	hip_flexion_l	hip_adduction_l	hip_rotation_l	knee_angle_l	knee_angle_l_beta	ankle_angle_l	subtalar_angle_l	mtp_angle_l	lumbar_extension	lumbar_bending	lumbar_rotation	arm_flex_r	arm_add_r	arm_rot_r	elbow_flex_r	pro_sup_r	arm_flex_l	arm_add_l	arm_rot_l	elbow_flex_l	pro_sup_l
      3.55000000	      4.87328966	      4.23212601	      7.88156936	      0.61780278	      0.90375235	      0.02905164	     -2.55395302	      2.68562912	      8.68382393	      9.12235640	      0.15921515	     12.47522378	     -1.89487817	     -7.49999987	     12.57106678	     -4.73245042	    -15.96220626	     10.30533762	      0.17986207	     -5.90110683	     -3.32103088	     -7.49999987	     -5.50706872	      4.00690416	      6.35876649	     27.97064813	      2.33236716	     67.09216506	    124.26906346	     79.09264890	     36.09064323	      9.10354941	     58.23091179	    126.81854359	     67.24529629
      3.56666670	      4.86687859	      4.34519389	      7.84116770	      0.61796911	      0.90382259	      0.02908836	     -2.51043730	      2.60349922	      8.72162546	      9.34255623	      0.16305837	     12.82580454	     -1.92641252	     -7.49999987	     12.98144104	     -4.73728648	    -16.22357920	     11.00831398	      0.19213132	     -5.83905832	     -3.60352739	     -7.49999987	     -5.62095680	      3.83720217	      6.28700904	     28.08708468	      2.47315567	     67.15338421	    124.30099529	     79.10659849	     36.28001897	      9.00288178	     58.26044016	    126.99121707	     67.30023980
      3.58333330	      4.89816472	      4.52162377	      7.81577911	      0.62339574	      0.90418259	      0.02622759	     -2.75351656	      2.37238318	      8.63601721	      9.30332998	      0.16237374	     12.99224220	     -2.02957552	     -7.49999987	     13.01414191	     -4.56392281	    -16.56669277	     11.39850657	      0.19894147	     -5.82917822	     -3.79572073	     -7.49999987	     -5.52739124	      3.67850825	      6.21064761	     27.91829658	      2.50240985	     67.19493276	    124.32648540	     79.20557791	     36.19161837	      8.98132707	     58.27355008	    127.06420034	     67.34081969
      3.60000000	      4.88100084	      4.60688248	      7.77205172	      0.62344259	      0.90416379	      0.02629384	     -2.92902230	      2.23335497	      8.55756037	      9.25067398	      0.16145472	     13.16652618	     -1.98359223	     -7.49999987	     13.06393611	     -4.46379656	    -16.80597943	     11.77554162	      0.20552197	     -5.56861881	     -3.90980832	     -7.49999987	     -5.40248222	      3.63312368	      6.06140743	     27.80412734	      2.63006122	     67.32159210	    124.44007486	     79.06757919	     36.04936268	      8.84293468	     58.30320596	    127.43781225	     67.26169481
      3.61666670	      4.89292085	      4.61398860	      7.75427957	      0.61788230	      0.90348872	      0.02917102	     -2.92698238	      2.26079144	      8.54944860	      9.24262042	      0.16131416	     13.17374524	     -1.98744066	     -7.49999987	     13.09722142	     -4.43142179	    -16.81614087	     11.77293180	      0.20547642	     -5.56095948	     -3.91598556	     -7.49999987	     -5.39682631	      3.63921741	      6.05611128	     27.80389771	      2.63115405	     67.32254577	    124.44206674	     79.06984113	     36.05488724	      8.84604909	     58.30355832	    127.43751353	     67.26252081
      3.63333330	      4.53467092	      4.57958254	      7.76615781	      0.61774188	      0.90038774	      0.02902388	     -2.33072781	      2.30031156	      8.56024987	      9.41840496	      0.16438218	     13.55016627	     -2.17956533	     -7.49999987	     13.88420765	     -4.53763173	    -17.00778130	     12.43980439	      0.21711554	     -5.14394360	     -4.28333578	     -7.49999987	     -5.09114424	      3.56752798	      5.90292209	     28.01594870	      2.79034942	     67.35490666	    124.51440328	     78.54950171	     36.53407618	      8.70460104	     58.19605924	    127.52623277	     67.03249000
      3.65000000	      4.68357109	      4.49586300	      7.80380698	      0.61747625	      0.90013708	      0.02885088	     -2.51085780	      2.46157582	      8.81677848	      9.21317873	      0.16080030	     13.68715135	     -2.47255850	     -7.49999987	     14.03190155	     -4.75402754	    -16.78535174	     12.93369809	      0.22573562	     -4.92968217	     -4.45162398	     -7.49999987	     -5.40322129	      3.64237465	      5.64361250	     28.52256872	      2.97045717	     67.26179055	    124.46712024	     84.07536650	     37.08212010	      8.70166434	     58.16316843	    127.56593328	     68.74389639
      3.66666670	      4.64588235	      4.34359766	      7.88955920	      0.61763630	      0.90023677	      0.02849725	     -2.53432837	      2.64416715	      8.86189149	      8.99372559	      0.15697012	     13.65696412	     -2.64502285	     -7.49999987	     14.17241131	     -4.94907163	    -16.58414955	     13.03193215	      0.22745012	     -4.80256715	     -4.47455479	     -7.49999987	     -5.34207370	      3.76750338	      5.45322237	     28.74193164	      2.98885730	     67.31455997	    124.55383302	     83.47948039	     37.32733272	      8.67142268	     58.16046314	    127.65006157	     68.41791764
      3.68333330	      4.68571355	      4.29704851	      7.79332669	      0.62319708	      0.90054756	      0.02545844	     -2.82693963	      2.62507058	      8.97605928	      8.79563263	      0.15351275	     13.70231286	     -2.74488759	     -7.49999987	     14.08255046	     -5.02533070	    -16.54167101	     13.32404034	      0.23254837	     -4.56629618	     -4.57113619	     -7.49999987	     -5.22506824	      3.80936464	      5.33157833	     28.64413468	      2.95300669	     67.36890701	    124.56690327	     83.51815145	     37.06694274	      8.66022853	     58.19805378	    127.65515144	     68.41411504
